<?xml version="1.0" encoding="UTF-8" standalone="no"?>
<!-- Created with Inkscape (http://www.inkscape.org/) -->

<svg
   xmlns:dc="http://purl.org/dc/elements/1.1/"
   xmlns:cc="http://creativecommons.org/ns#"
   xmlns:rdf="http://www.w3.org/1999/02/22-rdf-syntax-ns#"
   xmlns:svg="http://www.w3.org/2000/svg"
   xmlns="http://www.w3.org/2000/svg"
   xmlns:sodipodi="http://sodipodi.sourceforge.net/DTD/sodipodi-0.dtd"
   xmlns:inkscape="http://www.inkscape.org/namespaces/inkscape"
   width="75"
   height="75"
   viewBox="0 0 19.84375 19.843751"
   version="1.1"
   id="svg8"
   inkscape:version="0.92.4 (5da689c313, 2019-01-14)"
   sodipodi:docname="gelb_sonne1.svg">
  <defs
     id="defs2" />
  <sodipodi:namedview
     id="base"
     pagecolor="#ffffff"
     bordercolor="#666666"
     borderopacity="1.0"
     inkscape:pageopacity="0.0"
     inkscape:pageshadow="2"
     inkscape:zoom="12.114285"
     inkscape:cx="15.947914"
     inkscape:cy="57.072903"
     inkscape:document-units="mm"
     inkscape:current-layer="layer1"
     showgrid="false"
     showborder="false"
     inkscape:pagecheckerboard="true"
     inkscape:window-width="1920"
     inkscape:window-height="1017"
     inkscape:window-x="-8"
     inkscape:window-y="-8"
     inkscape:window-maximized="1"
     units="px" />
  <metadata
     id="metadata5">
    <rdf:RDF>
      <cc:Work
         rdf:about="">
        <dc:format>image/svg+xml</dc:format>
        <dc:type
           rdf:resource="http://purl.org/dc/dcmitype/StillImage" />
        <dc:title></dc:title>
      </cc:Work>
    </rdf:RDF>
  </metadata>
  <g
     inkscape:label="Ebene 1"
     inkscape:groupmode="layer"
     id="layer1"
     transform="translate(0,-277.15623)">
    <g
       id="g985"
       transform="matrix(1.0714285,0,0,1.0714288,-2.8548791,-14.474938)">
      <path
         style="fill:#f1e500;stroke-width:0.26458335"
         d="m 2.6645539,281.44948 v -9.26042 h 9.2604171 9.260417 v 9.26042 9.26041 H 11.924971 2.6645539 Z"
         id="path989"
         inkscape:connector-curvature="0" />
      <path
         style="fill:#090900;stroke-width:0.26458335"
         d="m 2.6645539,281.44948 v -9.26042 h 9.2604171 9.260417 v 9.26042 9.26041 H 11.924971 2.6645539 Z m 10.9821391,6.70084 c 0.356663,-1.47791 0.493713,-1.56328 1.43436,-0.89348 1.13717,0.80974 3.022381,0.68735 3.148722,-0.20441 0.0479,-0.33811 -0.103102,-1.0901 -0.335565,-1.67108 -0.424767,-1.0616 -0.368912,-1.55062 0.177105,-1.55062 0.621474,0 1.261989,-0.89586 1.261989,-1.76508 0,-0.75586 -0.138969,-0.95559 -0.926041,-1.33092 -1.108726,-0.52871 -1.139606,-0.75318 -0.233703,-1.69873 0.611901,-0.63869 0.665272,-0.8371 0.45937,-1.70774 -0.33099,-1.39957 -0.811708,-1.61566 -2.373657,-1.06698 -1.929915,0.67792 -2.028977,0.66197 -2.245399,-0.36169 -0.350448,-1.65758 -2.107531,-2.4224 -2.749943,-1.19699 -0.152576,0.29104 -0.427755,0.79728 -0.611509,1.12497 l -0.334097,0.59581 -1.0382202,-0.52966 c -1.263014,-0.64434 -2.0518221,-0.67123 -2.692113,-0.0918 -0.692176,0.62641 -0.6005124,1.32305 0.3284111,2.49591 0.917569,1.15853 0.8369899,1.56413 -0.3107404,1.56413 -1.0699997,0 -2.1898234,1.10873 -1.94187,1.92263 0.2526116,0.8292 0.8191722,1.41464 1.7368631,1.79476 0.7023405,0.29092 0.7686636,0.41504 0.6137654,1.14866 -0.095515,0.45237 -0.4247161,1.09573 -0.7315573,1.42969 -0.5935369,0.646 -0.4631267,1.18895 0.4192587,1.74555 0.4199618,0.2649 2.3129236,-0.004 3.4332336,-0.48831 0.350352,-0.15136 0.526627,-0.0215 0.742908,0.54739 0.442278,1.16328 0.804361,1.45799 1.685629,1.37199 0.717593,-0.07 0.848509,-0.21318 1.0828,-1.18402 z"
         id="path987"
         inkscape:connector-curvature="0" />
    </g>
  </g>
</svg>
