<?xml version="1.0" encoding="UTF-8" standalone="no"?>
<!-- Created with Inkscape (http://www.inkscape.org/) -->

<svg
   xmlns:dc="http://purl.org/dc/elements/1.1/"
   xmlns:cc="http://creativecommons.org/ns#"
   xmlns:rdf="http://www.w3.org/1999/02/22-rdf-syntax-ns#"
   xmlns:svg="http://www.w3.org/2000/svg"
   xmlns="http://www.w3.org/2000/svg"
   xmlns:sodipodi="http://sodipodi.sourceforge.net/DTD/sodipodi-0.dtd"
   xmlns:inkscape="http://www.inkscape.org/namespaces/inkscape"
   width="75"
   height="75"
   viewBox="0 0 19.84375 19.843751"
   version="1.1"
   id="svg8"
   inkscape:version="0.92.4 (5da689c313, 2019-01-14)"
   sodipodi:docname="orange_sonne1.svg">
  <defs
     id="defs2" />
  <sodipodi:namedview
     id="base"
     pagecolor="#ffffff"
     bordercolor="#666666"
     borderopacity="1.0"
     inkscape:pageopacity="0.0"
     inkscape:pageshadow="2"
     inkscape:zoom="12.114285"
     inkscape:cx="32.911983"
     inkscape:cy="40.563468"
     inkscape:document-units="mm"
     inkscape:current-layer="layer1"
     showgrid="false"
     showborder="false"
     inkscape:pagecheckerboard="true"
     inkscape:window-width="1920"
     inkscape:window-height="1017"
     inkscape:window-x="-8"
     inkscape:window-y="-8"
     inkscape:window-maximized="1"
     units="px" />
  <metadata
     id="metadata5">
    <rdf:RDF>
      <cc:Work
         rdf:about="">
        <dc:format>image/svg+xml</dc:format>
        <dc:type
           rdf:resource="http://purl.org/dc/dcmitype/StillImage" />
        <dc:title></dc:title>
      </cc:Work>
    </rdf:RDF>
  </metadata>
  <g
     inkscape:label="Ebene 1"
     inkscape:groupmode="layer"
     id="layer1"
     transform="translate(0,-277.15623)">
    <g
       id="g1047"
       transform="matrix(1.0714285,0,0,1.0714288,12.449146,-13.702737)">
      <path
         style="fill:#f07723;stroke-width:0.26458335"
         d="m -11.619203,280.72874 v -9.26042 h 9.260417 9.260417 v 9.26042 9.26041 h -9.260417 -9.260417 z"
         id="path1051"
         inkscape:connector-curvature="0" />
      <path
         style="fill:#090401;stroke-width:0.26458335"
         d="m -11.619203,280.72874 v -9.26042 h 9.260417 9.260417 v 9.26042 9.26041 h -9.260417 -9.260417 z m 10.98213939,6.70084 c 0.35666285,-1.47791 0.49371226,-1.56328 1.43435975,-0.89348 1.13716966,0.80974 3.02238126,0.68735 3.14872196,-0.20441 0.047903,-0.33811 -0.1031018,-1.0901 -0.3355652,-1.67108 -0.4247664,-1.0616 -0.3689123,-1.55062 0.1771052,-1.55062 0.6214737,0 1.2619895,-0.89586 1.2619895,-1.76508 0,-0.75586 -0.1389692,-0.95559 -0.9260417,-1.33092 -1.1087254,-0.52871 -1.1396062,-0.75318 -0.2337033,-1.69873 0.6119019,-0.63869 0.6652721,-0.8371 0.4593701,-1.70774 -0.33099,-1.39957 -0.8117075,-1.61566 -2.373657,-1.06698 -1.92991459,0.67792 -2.02897645,0.66197 -2.24539848,-0.36169 -0.35044805,-1.65758 -2.10753152,-2.4224 -2.74994332,-1.19699 -0.1525759,0.29104 -0.4277548,0.79728 -0.6115084,1.12497 l -0.3340979,0.59581 -1.0382197,-0.52966 c -1.263014,-0.64434 -2.0518221,-0.67123 -2.692113,-0.0918 -0.692176,0.62641 -0.6005124,1.32305 0.3284111,2.49591 0.917569,1.15853 0.8369899,1.56413 -0.3107404,1.56413 -1.0699997,0 -2.1898234,1.10873 -1.94187,1.92263 0.2526116,0.8292 0.8191722,1.41464 1.7368631,1.79476 0.7023405,0.29092 0.7686636,0.41504 0.6137654,1.14866 -0.095515,0.45237 -0.4247161,1.09573 -0.7315573,1.42969 -0.5935369,0.646 -0.4631267,1.18895 0.4192587,1.74555 0.4199618,0.2649 2.3129236,-0.004 3.4332338,-0.48831 0.3503522,-0.15136 0.5266264,-0.0215 0.7429074,0.54739 0.4422786,1.16328 0.8043611,1.45799 1.6856298,1.37199 0.7175923,-0.07 0.84850896,-0.21318 1.08279989,-1.18402 z"
         id="path1049"
         inkscape:connector-curvature="0" />
    </g>
  </g>
</svg>
