<?xml version="1.0" encoding="UTF-8" standalone="no"?>
<!-- Created with Inkscape (http://www.inkscape.org/) -->

<svg
   xmlns:dc="http://purl.org/dc/elements/1.1/"
   xmlns:cc="http://creativecommons.org/ns#"
   xmlns:rdf="http://www.w3.org/1999/02/22-rdf-syntax-ns#"
   xmlns:svg="http://www.w3.org/2000/svg"
   xmlns="http://www.w3.org/2000/svg"
   xmlns:sodipodi="http://sodipodi.sourceforge.net/DTD/sodipodi-0.dtd"
   xmlns:inkscape="http://www.inkscape.org/namespaces/inkscape"
   width="75"
   height="75"
   viewBox="0 0 19.84375 19.843751"
   version="1.1"
   id="svg8"
   inkscape:version="0.92.4 (5da689c313, 2019-01-14)"
   sodipodi:docname="lila_kreuz1.svg">
  <defs
     id="defs2" />
  <sodipodi:namedview
     id="base"
     pagecolor="#ffffff"
     bordercolor="#666666"
     borderopacity="1.0"
     inkscape:pageopacity="0.0"
     inkscape:pageshadow="2"
     inkscape:zoom="12.114285"
     inkscape:cx="32.911983"
     inkscape:cy="40.563468"
     inkscape:document-units="mm"
     inkscape:current-layer="layer1"
     showgrid="false"
     showborder="false"
     inkscape:pagecheckerboard="true"
     inkscape:window-width="1920"
     inkscape:window-height="1017"
     inkscape:window-x="-8"
     inkscape:window-y="-8"
     inkscape:window-maximized="1"
     units="px" />
  <metadata
     id="metadata5">
    <rdf:RDF>
      <cc:Work
         rdf:about="">
        <dc:format>image/svg+xml</dc:format>
        <dc:type
           rdf:resource="http://purl.org/dc/dcmitype/StillImage" />
        <dc:title></dc:title>
      </cc:Work>
    </rdf:RDF>
  </metadata>
  <g
     inkscape:label="Ebene 1"
     inkscape:groupmode="layer"
     id="layer1"
     transform="translate(0,-277.15623)">
    <g
       id="g894"
       transform="matrix(1.0714286,0,0,1.0714288,-5.6395569,-19.927309)">
      <path
         style="fill:#9f46a0;stroke-width:0.26458335"
         d="m 5.2635865,286.53834 v -9.26042 h 9.2604165 9.260417 v 9.26042 9.26041 H 14.524003 5.2635865 Z"
         id="path898"
         inkscape:connector-curvature="0" />
      <path
         style="fill:#0a040a;stroke-width:0.26458335"
         d="m 5.2635865,286.53834 v -9.26042 h 9.2604165 9.260417 v 9.26042 9.26041 H 14.524003 5.2635865 Z m 10.9461995,7.65239 c 0.909668,-0.71554 1.239092,-1.36138 1.45138,-2.84546 0.154579,-1.08064 0.26072,-1.23219 0.965649,-1.37875 1.931536,-0.40158 3.305522,-1.71658 3.305522,-3.1636 0,-1.50171 -1.439921,-2.82478 -3.439583,-3.16047 -0.843238,-0.14156 -0.939319,-0.24971 -1.074524,-1.20948 -0.301032,-2.13691 -1.814458,-3.83016 -3.423393,-3.83016 -1.686883,0 -3.439584,2.12283 -3.439584,4.16594 0,0.98247 -0.0381,1.02419 -1.2253568,1.34174 -2.6743947,0.71529 -3.7968886,3.03718 -2.3179796,4.79476 0.8990736,1.06849 1.5004488,1.37146 3.1170664,1.57036 1.215225,0.14952 1.345373,0.23283 1.495847,0.95752 0.572133,2.75541 2.847766,4.12408 4.584956,2.7576 z"
         id="path896"
         inkscape:connector-curvature="0" />
    </g>
  </g>
</svg>
