<?xml version="1.0" encoding="UTF-8" standalone="no"?>
<!-- Created with Inkscape (http://www.inkscape.org/) -->

<svg
   xmlns:dc="http://purl.org/dc/elements/1.1/"
   xmlns:cc="http://creativecommons.org/ns#"
   xmlns:rdf="http://www.w3.org/1999/02/22-rdf-syntax-ns#"
   xmlns:svg="http://www.w3.org/2000/svg"
   xmlns="http://www.w3.org/2000/svg"
   xmlns:sodipodi="http://sodipodi.sourceforge.net/DTD/sodipodi-0.dtd"
   xmlns:inkscape="http://www.inkscape.org/namespaces/inkscape"
   width="75"
   height="75"
   viewBox="0 0 19.84375 19.843751"
   version="1.1"
   id="svg8"
   inkscape:version="0.92.4 (5da689c313, 2019-01-14)"
   sodipodi:docname="right1.svg">
  <defs
     id="defs2" />
  <sodipodi:namedview
     id="base"
     pagecolor="#ffffff"
     bordercolor="#666666"
     borderopacity="1.0"
     inkscape:pageopacity="0.0"
     inkscape:pageshadow="2"
     inkscape:zoom="0.35"
     inkscape:cx="400"
     inkscape:cy="560"
     inkscape:document-units="mm"
     inkscape:current-layer="layer1"
     showgrid="false"
     units="px"
     inkscape:pagecheckerboard="true"
     showborder="false"
     inkscape:window-width="1920"
     inkscape:window-height="1001"
     inkscape:window-x="-9"
     inkscape:window-y="-9"
     inkscape:window-maximized="1" />
  <metadata
     id="metadata5">
    <rdf:RDF>
      <cc:Work
         rdf:about="">
        <dc:format>image/svg+xml</dc:format>
        <dc:type
           rdf:resource="http://purl.org/dc/dcmitype/StillImage" />
        <dc:title />
      </cc:Work>
    </rdf:RDF>
  </metadata>
  <g
     inkscape:label="Ebene 1"
     inkscape:groupmode="layer"
     id="layer1"
     transform="translate(0,-277.15623)">
    <path
       style="fill:#32b558;stroke-width:0.11094382"
       d="m 4.3243676,296.53731 c -0.1025854,-0.25656 -0.2429381,-0.6856 -0.3118957,-0.9534 -0.068961,-0.26782 -0.2753542,-0.90066 -0.4586545,-1.40633 -0.1833041,-0.50567 -0.3332757,-0.99248 -0.3332757,-1.08179 0,-0.0893 -0.3592184,-0.63199 -0.7982618,-1.20595 -0.76423,-0.99909 -2.11333152,-3.10824 -2.35255613,-3.67794 -0.1526867,-0.3636 -0.0460663,-0.66207 0.23650206,-0.66207 0.17657625,0 0.40086056,0.28509 0.95415347,1.21284 0.3978239,0.66706 1.1172479,1.72775 1.5987226,2.35708 0.8454351,1.10507 0.892859,1.19842 1.3852647,2.7267 0.2804254,0.87035 0.5657351,1.60569 0.634023,1.63409 0.1499006,0.0623 1.1897167,-1.31434 1.8053179,-2.3902 0.2448978,-0.428 0.6298905,-1.08376 0.8555437,-1.45727 0.433389,-0.71734 2.0806125,-2.69927 3.5134468,-4.22734 1.742063,-1.85785 2.852042,-3.19038 3.869304,-4.64509 0.574116,-0.821 1.826963,-2.43427 2.784109,-3.58503 1.397583,-1.6803 1.77939,-2.07669 1.938954,-2.01303 0.13045,0.0521 0.198685,0.18811 0.198685,0.39617 0,0.36595 -1.12543,1.89607 -2.176847,2.95961 -0.35374,0.35781 -1.021637,1.20271 -1.484215,1.87753 -1.118232,1.63131 -2.394846,3.23835 -3.653295,4.59888 -3.0240933,3.26941 -4.262401,4.80123 -5.0549782,6.25314 -0.272886,0.49991 -0.9502976,1.54949 -1.5053557,2.3324 -1.1465786,1.61726 -1.336506,1.72777 -1.6446915,0.957 z"
       id="path27"
       inkscape:connector-curvature="0" />
  </g>
</svg>
