<?xml version="1.0" encoding="UTF-8" standalone="no"?>
<!-- Created with Inkscape (http://www.inkscape.org/) -->

<svg
   xmlns:dc="http://purl.org/dc/elements/1.1/"
   xmlns:cc="http://creativecommons.org/ns#"
   xmlns:rdf="http://www.w3.org/1999/02/22-rdf-syntax-ns#"
   xmlns:svg="http://www.w3.org/2000/svg"
   xmlns="http://www.w3.org/2000/svg"
   xmlns:sodipodi="http://sodipodi.sourceforge.net/DTD/sodipodi-0.dtd"
   xmlns:inkscape="http://www.inkscape.org/namespaces/inkscape"
   width="75"
   height="75"
   viewBox="0 0 19.84375 19.843751"
   version="1.1"
   id="svg8"
   inkscape:version="0.92.4 (5da689c313, 2019-01-14)"
   sodipodi:docname="blau_kreuz1.svg">
  <defs
     id="defs2" />
  <sodipodi:namedview
     id="base"
     pagecolor="#ffffff"
     bordercolor="#666666"
     borderopacity="1.0"
     inkscape:pageopacity="0.0"
     inkscape:pageshadow="2"
     inkscape:zoom="12.114285"
     inkscape:cx="15.947914"
     inkscape:cy="40.563468"
     inkscape:document-units="mm"
     inkscape:current-layer="layer1"
     showgrid="false"
     showborder="false"
     inkscape:pagecheckerboard="true"
     inkscape:window-width="1920"
     inkscape:window-height="1017"
     inkscape:window-x="-8"
     inkscape:window-y="-8"
     inkscape:window-maximized="1"
     units="px" />
  <metadata
     id="metadata5">
    <rdf:RDF>
      <cc:Work
         rdf:about="">
        <dc:format>image/svg+xml</dc:format>
        <dc:type
           rdf:resource="http://purl.org/dc/dcmitype/StillImage" />
        <dc:title></dc:title>
      </cc:Work>
    </rdf:RDF>
  </metadata>
  <g
     inkscape:label="Ebene 1"
     inkscape:groupmode="layer"
     id="layer1"
     transform="translate(0,-277.15623)">
    <g
       id="g826"
       transform="matrix(1.0714288,0,0,1.0714285,135.46401,249.91614)">
      <path
         style="fill:#3c44c5;stroke-width:0.26458335"
         d="m -126.43304,34.684524 v -9.260417 h 9.26042 9.26041 v 9.260417 9.260417 h -9.26041 -9.26042 z"
         id="path830"
         inkscape:connector-curvature="0" />
      <path
         style="fill:#020309;stroke-width:0.26458335"
         d="m -126.43304,34.684524 v -9.260417 h 9.26042 9.26041 v 9.260417 9.260417 h -9.26041 -9.26042 z m 10.9462,7.652398 c 0.90953,-0.715435 1.23909,-1.361384 1.45123,-2.84444 0.16372,-1.144516 0.22975,-1.224754 1.16848,-1.419792 1.29602,-0.269273 2.24301,-0.905416 2.71949,-1.826817 1.03336,-1.998303 -0.33848,-4.000647 -3.05354,-4.456971 -0.87336,-0.146785 -0.93334,-0.225001 -1.10777,-1.44443 -0.2231,-1.559633 -1.36572,-3.092627 -2.5605,-3.435285 -2.02042,-0.57945 -4.00567,1.128643 -4.21265,3.624533 l -0.11698,1.410653 -1.1965,0.320016 c -2.64489,0.7074 -3.75991,3.039131 -2.28913,4.787049 0.89892,1.068311 1.5004,1.371426 3.11609,1.570362 1.28964,0.15879 1.33648,0.194746 1.54169,1.183481 0.53997,2.601617 2.82867,3.877842 4.54009,2.531641 z"
         id="path828"
         inkscape:connector-curvature="0" />
    </g>
  </g>
</svg>
