<?xml version="1.0" encoding="UTF-8" standalone="no"?>
<!-- Created with Inkscape (http://www.inkscape.org/) -->

<svg
   xmlns:dc="http://purl.org/dc/elements/1.1/"
   xmlns:cc="http://creativecommons.org/ns#"
   xmlns:rdf="http://www.w3.org/1999/02/22-rdf-syntax-ns#"
   xmlns:svg="http://www.w3.org/2000/svg"
   xmlns="http://www.w3.org/2000/svg"
   xmlns:sodipodi="http://sodipodi.sourceforge.net/DTD/sodipodi-0.dtd"
   xmlns:inkscape="http://www.inkscape.org/namespaces/inkscape"
   width="75"
   height="75"
   viewBox="0 0 19.84375 19.843751"
   version="1.1"
   id="svg8"
   inkscape:version="0.92.4 (5da689c313, 2019-01-14)"
   sodipodi:docname="lila_stern1.svg">
  <defs
     id="defs2" />
  <sodipodi:namedview
     id="base"
     pagecolor="#ffffff"
     bordercolor="#666666"
     borderopacity="1.0"
     inkscape:pageopacity="0.0"
     inkscape:pageshadow="2"
     inkscape:zoom="12.114285"
     inkscape:cx="32.911983"
     inkscape:cy="40.563468"
     inkscape:document-units="mm"
     inkscape:current-layer="layer1"
     showgrid="false"
     showborder="false"
     inkscape:pagecheckerboard="true"
     inkscape:window-width="1920"
     inkscape:window-height="1017"
     inkscape:window-x="-8"
     inkscape:window-y="-8"
     inkscape:window-maximized="1"
     units="px" />
  <metadata
     id="metadata5">
    <rdf:RDF>
      <cc:Work
         rdf:about="">
        <dc:format>image/svg+xml</dc:format>
        <dc:type
           rdf:resource="http://purl.org/dc/dcmitype/StillImage" />
        <dc:title></dc:title>
      </cc:Work>
    </rdf:RDF>
  </metadata>
  <g
     inkscape:label="Ebene 1"
     inkscape:groupmode="layer"
     id="layer1"
     transform="translate(0,-277.15623)">
    <g
       id="g962"
       transform="matrix(1.0714285,0,0,1.0714288,2.9484815,-19.295466)">
      <path
         style="fill:#9e469f;stroke-width:0.26458335"
         d="m -2.7519162,285.94862 v -9.26042 h 9.260417 9.2604172 v 9.26042 9.26041 h -9.2604172 -9.260417 z"
         id="path966"
         inkscape:connector-curvature="0" />
      <path
         style="fill:#080308;stroke-width:0.26458335"
         d="m -2.7519162,285.94862 v -9.26042 h 9.260417 9.2604172 v 9.26042 9.26041 h -9.2604172 -9.260417 z m 10.6261444,4.77637 c 0.4123139,-1.2293 0.8714832,-2.35692 1.0203759,-2.50581 0.1488927,-0.14889 1.3100399,-0.57845 2.5803259,-0.95457 2.042064,-0.60464 2.309613,-0.75489 2.309613,-1.29709 0,-0.54017 -0.299493,-0.71181 -2.513542,-1.44055 l -2.5135418,-0.82731 -0.7974764,-2.3056 c -0.8965309,-2.59198 -1.2685007,-3.14259 -1.7784848,-2.63261 -0.1798513,0.17985 -0.685867,1.36453 -1.1244792,2.63261 l -0.7974764,2.3056 -2.5135418,0.82731 c -2.18407885,0.71887 -2.51354173,0.90526 -2.51354173,1.422 0,0.51539 0.29990297,0.68736 2.24895843,1.28958 1.2369271,0.38219 2.3884213,0.78533 2.5588762,0.89586 0.1704547,0.11053 0.6329215,1.18199 1.0277039,2.38102 0.8872054,2.69462 0.8452647,2.62441 1.5089188,2.52592 0.4300768,-0.0638 0.7085931,-0.56112 1.297312,-2.31636 z"
         id="path964"
         inkscape:connector-curvature="0" />
    </g>
  </g>
</svg>
