<?xml version="1.0" encoding="UTF-8" standalone="no"?>
<!-- Created with Inkscape (http://www.inkscape.org/) -->

<svg
   xmlns:dc="http://purl.org/dc/elements/1.1/"
   xmlns:cc="http://creativecommons.org/ns#"
   xmlns:rdf="http://www.w3.org/1999/02/22-rdf-syntax-ns#"
   xmlns:svg="http://www.w3.org/2000/svg"
   xmlns="http://www.w3.org/2000/svg"
   xmlns:sodipodi="http://sodipodi.sourceforge.net/DTD/sodipodi-0.dtd"
   xmlns:inkscape="http://www.inkscape.org/namespaces/inkscape"
   width="75"
   height="75"
   viewBox="0 0 19.84375 19.843751"
   version="1.1"
   id="svg8"
   inkscape:version="0.92.4 (5da689c313, 2019-01-14)"
   sodipodi:docname="gruen_eckig1.svg">
  <defs
     id="defs2" />
  <sodipodi:namedview
     id="base"
     pagecolor="#ffffff"
     bordercolor="#666666"
     borderopacity="1.0"
     inkscape:pageopacity="0.0"
     inkscape:pageshadow="2"
     inkscape:zoom="12.114285"
     inkscape:cx="15.947914"
     inkscape:cy="50.469129"
     inkscape:document-units="mm"
     inkscape:current-layer="layer1"
     showgrid="false"
     showborder="false"
     inkscape:pagecheckerboard="true"
     inkscape:window-width="1920"
     inkscape:window-height="1017"
     inkscape:window-x="-8"
     inkscape:window-y="-8"
     inkscape:window-maximized="1"
     units="px" />
  <metadata
     id="metadata5">
    <rdf:RDF>
      <cc:Work
         rdf:about="">
        <dc:format>image/svg+xml</dc:format>
        <dc:type
           rdf:resource="http://purl.org/dc/dcmitype/StillImage" />
        <dc:title></dc:title>
      </cc:Work>
    </rdf:RDF>
  </metadata>
  <g
     inkscape:label="Ebene 1"
     inkscape:groupmode="layer"
     id="layer1"
     transform="translate(0,-277.15623)">
    <g
       id="g1019"
       transform="matrix(1.0714285,0,0,1.0714288,1.6146448,-12.392306)">
      <path
         style="fill:#20ae4a;stroke-width:0.26458335"
         d="m -1.5070019,279.50569 v -9.26042 h 9.260417 9.2604169 v 9.26042 9.26041 h -9.2604169 -9.260417 z"
         id="path1023"
         inkscape:connector-curvature="0" />
      <path
         style="fill:#020f06;stroke-width:0.26458335"
         d="m -1.5070019,279.50569 v -9.26042 h 9.260417 9.2604169 v 9.26042 9.26041 H 7.7534151 -1.5070019 Z M 14.50029,279.77027 V 273.0234 H 7.8857068 1.2711232 l -0.070988,6.47729 c -0.039044,3.56251 -0.012213,6.63046 0.059621,6.81766 0.1026235,0.26743 1.5351676,0.32519 6.6855724,0.26958 l 6.5549624,-0.0708 z"
         id="path1021"
         inkscape:connector-curvature="0" />
    </g>
    <path
       style="fill:#000000;fill-opacity:1;stroke-width:0.08254717"
       d="m 0.01631082,1085.0187 v -37.4351 H 37.492727 74.969144 v 37.4351 37.4352 H 37.492727 0.01631082 Z m 52.45872818,28.5647 c 5.493514,-0.067 10.517542,-0.1236 11.164505,-0.1248 h 1.176297 v -27.3644 -27.3644 H 38.038302 11.260764 l -0.0489,1.5891 c -0.112952,3.6706 -0.328306,28.4871 -0.324321,37.3732 0.0042,9.3804 0.09313,14.1093 0.278224,14.7967 0.07543,0.2801 0.144093,0.3489 0.515363,0.516 0.780522,0.3514 2.65967,0.5716 5.984469,0.7012 2.491201,0.097 22.805921,0.027 34.809439,-0.1202 z"
       id="path1025"
       inkscape:connector-curvature="0"
       transform="scale(0.26458333)" />
  </g>
</svg>
